<?xml version="1.0" standalone="no"?>
<!DOCTYPE svg PUBLIC "-//W3C//DTD SVG 20010904//EN"
 "http://www.w3.org/TR/2001/REC-SVG-20010904/DTD/svg10.dtd">
<svg version="1.0" xmlns="http://www.w3.org/2000/svg"
 width="500.000000pt" height="500.000000pt" viewBox="0 0 500.000000 500.000000"
 preserveAspectRatio="xMidYMid meet">

<g transform="translate(0.000000,500.000000) scale(0.100000,-0.100000)"
fill="#000000" stroke="none">
<path d="M1060 4025 l0 -245 55 0 55 0 0 60 c0 55 3 64 34 98 32 34 36 35 48
20 7 -9 42 -53 78 -97 l65 -81 63 0 c34 0 62 3 62 6 0 4 -43 60 -95 125 -53
66 -98 126 -101 133 -3 9 32 55 91 118 l97 103 -58 3 -59 3 -108 -110 c-59
-61 -109 -111 -112 -111 -3 0 -5 50 -5 110 l0 110 -55 0 -55 0 0 -245z"/>
<path d="M1580 4025 l0 -245 55 0 55 0 0 70 0 70 53 0 52 0 48 -70 48 -70 60
0 c46 0 58 3 52 13 -4 6 -27 40 -51 75 l-44 63 35 33 c43 39 57 72 57 132 0
54 -18 92 -60 127 -44 38 -89 47 -232 47 l-128 0 0 -245z m287 121 c20 -24 24
-37 19 -65 -9 -55 -35 -71 -122 -71 l-74 0 0 86 0 86 76 -4 c69 -3 78 -6 101
-32z"/>
<path d="M2145 4044 c-55 -125 -103 -235 -107 -246 -7 -16 -2 -18 51 -18 l58
0 20 53 20 52 112 3 112 3 25 -56 25 -55 59 0 59 0 -19 43 c-11 23 -59 132
-108 242 l-90 200 -58 3 -59 2 -100 -226z m214 -21 l21 -53 -75 0 c-41 0 -75
4 -75 9 0 5 9 28 19 52 11 24 27 62 36 84 l17 40 18 -40 c10 -22 28 -64 39
-92z"/>
<path d="M2571 4263 c0 -4 46 -114 103 -243 l102 -235 58 0 58 0 104 240 c57
132 104 241 104 243 0 2 -25 2 -56 0 l-57 -3 -69 -160 c-38 -88 -73 -164 -77
-168 -4 -4 -39 68 -78 160 l-71 168 -61 3 c-34 2 -61 -1 -60 -5z"/>
<path d="M3150 4025 l0 -245 190 0 190 0 0 45 0 45 -130 0 -130 0 0 55 0 55
110 0 110 0 0 45 0 45 -110 0 -110 0 0 55 0 55 125 0 125 0 0 45 0 45 -185 0
-185 0 0 -245z"/>
<path d="M3570 4225 l0 -45 75 0 75 0 0 -200 0 -200 60 0 60 0 0 200 0 200 80
0 80 0 0 45 0 45 -215 0 -215 0 0 -45z"/>
<path d="M2184 3211 c-96 -24 -197 -103 -243 -192 l-25 -47 -195 -4 c-195 -4
-196 -4 -261 -35 -83 -39 -144 -101 -184 -183 l-31 -65 -3 -693 c-3 -773 -3
-768 63 -870 38 -56 93 -101 165 -136 l45 -21 980 0 980 0 66 32 c78 39 141
102 176 179 39 87 45 206 41 874 -4 534 -6 611 -21 657 -24 71 -73 141 -132
185 -83 63 -116 70 -332 76 l-193 4 -30 53 c-39 67 -107 130 -178 163 l-57 27
-300 2 c-165 1 -314 -2 -331 -6z m593 -257 c23 -12 42 -32 59 -65 32 -65 78
-115 128 -142 37 -20 60 -22 248 -27 190 -5 209 -7 235 -26 54 -40 53 -19 53
-732 0 -732 2 -704 -64 -736 -31 -14 -122 -16 -943 -16 -701 0 -913 3 -932 13
-13 6 -34 25 -45 40 -21 28 -21 36 -24 688 -3 719 -3 708 54 746 24 15 57 19
234 23 227 6 251 12 311 72 19 19 44 54 56 79 23 45 55 82 83 92 8 3 127 6
263 6 211 1 254 -1 284 -15z"/>
<path d="M2395 2455 c-235 -51 -398 -251 -398 -490 0 -144 47 -257 148 -358
197 -196 512 -194 710 7 194 197 192 509 -5 706 -68 67 -135 104 -236 130 -88
23 -134 24 -219 5z m201 -260 c44 -18 102 -72 127 -119 28 -54 30 -165 3 -216
-76 -146 -248 -191 -376 -99 -65 47 -93 101 -98 189 -3 68 -1 80 25 130 60
114 198 164 319 115z"/>
</g>
</svg>
